<svg width="63" height="63" viewBox="0 0 63 63" fill="none" xmlns="http://www.w3.org/2000/svg">
<path d="M31.4999 57.75C45.9973 57.75 57.7498 45.9974 57.7498 31.5C57.7498 17.0025 45.9973 5.25002 31.4999 5.25002C17.0024 5.25002 5.2499 17.0025 5.2499 31.5C5.2499 45.9974 17.0024 57.75 31.4999 57.75Z" stroke="#00ADB5" stroke-width="3.89747" stroke-linecap="round" stroke-linejoin="round"/>
<path opacity="0.4" d="M22.7851 31.2637L27.1163 32.3399L24.6226 42.4201C24.0451 44.7826 25.2 45.5699 27.195 44.1787L40.7926 34.755C42.4463 33.6 42.21 32.2613 40.2413 31.7625L35.9101 30.6863L38.4038 20.6063C38.9813 18.2438 37.8263 17.4563 35.8313 18.8476L22.2338 28.2714C20.5801 29.4264 20.8163 30.765 22.7851 31.2637Z" stroke="#00ADB5" stroke-width="3.89747" stroke-miterlimit="10" stroke-linecap="round" stroke-linejoin="round"/>
</svg>
